Coordinates
version=1
nRows=7
nColumns=40
inDegrees=yes

Units are S.I. units (second, meters, Newtons, ...)
Angles are in degrees.

endheader
time	pelvis_tilt	pelvis_list	pelvis_rotation	pelvis_tx	pelvis_ty	pelvis_tz	hip_flexion_r	hip_adduction_r	hip_rotation_r	knee_angle_r	knee_angle_r_beta	ankle_angle_r	subtalar_angle_r	mtp_angle_r	hip_flexion_l	hip_adduction_l	hip_rotation_l	knee_angle_l	knee_angle_l_beta	ankle_angle_l	subtalar_angle_l	mtp_angle_l	lumbar_extension	lumbar_bending	lumbar_rotation	arm_flex_r	arm_add_r	arm_rot_r	elbow_flex_r	pro_sup_r	wrist_flex_r	wrist_dev_r	arm_flex_l	arm_add_l	arm_rot_l	elbow_flex_l	pro_sup_l	wrist_flex_l	wrist_dev_l
     18.41000000	     -0.31429148	     -4.99184224	      0.73418289	      0.85033424	      0.92198519	      0.54222125	     11.52040693	      5.77451742	    -13.28832625	     25.59256037	     25.59256037	     16.57058260	     -7.20981267	     -1.08009157	     23.71953488	    -18.12959007	     -2.94972561	     58.28535559	     58.28535559	     18.46145491	    -19.62757764	     23.95981033	    -10.87485931	      7.56439758	      3.14784737	     16.52491353	    -17.83016052	     -7.05985902	     47.57489446	     44.45990377	      0.00000000	      0.00000000	      6.60545942	    -15.62137182	    -15.88996340	     63.22200990	     44.76233015	      0.00000000	      0.00000000
     18.42857143	     -0.16576920	     -4.86446923	      1.23032906	      0.84870431	      0.91983990	      0.54270625	     11.77335366	      5.61098797	    -13.28020448	     26.90486908	     26.90486908	     17.18083129	     -8.25477463	     -1.29347443	     24.55794316	    -17.99269187	     -2.83685874	     57.19599553	     57.19599553	     18.50350291	    -19.62226700	     23.87339987	    -11.03768248	      7.36878171	      2.92404558	     18.69871254	    -16.99406052	     -6.85219021	     48.85124554	     44.43241740	      0.00000000	      0.00000000	      4.76107387	    -14.09607952	    -15.16623916	     61.08936182	     44.70967407	      0.00000000	      0.00000000
     18.44714286	      0.00243038	     -4.82955458	      1.75896239	      0.84706255	      0.91780178	      0.54319085	     11.89995987	      5.62211816	    -13.17341548	     28.00801297	     28.00801297	     17.81594253	     -9.43914410	     -1.00986673	     25.34305537	    -17.90400223	     -2.66567060	     55.95805162	     55.95805162	     18.43362917	    -19.61687272	     23.63477115	    -11.18502505	      7.31134432	      2.86389596	     20.85468156	    -16.39582577	     -6.08167771	     50.03828301	     44.41620810	      0.00000000	      0.00000000	      3.66395041	    -12.45239195	    -14.46062186	     57.13423002	     44.72190451	      0.00000000	      0.00000000
     18.46571429	      0.14199776	     -4.69051109	      2.28496179	      0.84541648	      0.91584564	      0.54349000	     12.04089088	      5.48927616	    -13.13860082	     29.11543585	     29.11543585	     18.49453241	    -10.42740560	     -0.67423662	     26.05608491	    -17.63702409	     -2.52071626	     54.58012954	     54.58012954	     18.31189092	    -19.60747992	     23.42925529	    -11.34015760	      7.12115662	      2.92089155	     22.85400532	    -15.84758297	     -5.40703684	     51.36775822	     44.40932560	      0.00000000	      0.00000000	      2.65083955	    -10.90275268	    -13.71728593	     53.18039853	     44.75231238	      0.00000000	      0.00000000
     18.48428571	      0.28172460	     -4.51017692	      2.82573224	      0.84379626	      0.91409051	      0.54360951	     12.11885190	      5.30741001	    -13.12404849	     30.11387402	     30.11387402	     19.03225682	    -11.36505866	     -0.73535875	     26.67004483	    -17.24315988	     -2.32680391	     53.09370214	     53.09370214	     18.23259153	    -19.58719436	     23.37726344	    -11.54953074	      6.85580076	      2.69470312	     24.98509280	    -14.98027082	     -5.21450006	     52.76085003	     44.37545225	      0.00000000	      0.00000000	      0.99195248	     -9.63786722	    -13.11315110	     50.81710480	     44.69485610	      0.00000000	      0.00000000
     18.50285714	      0.33895089	     -4.37680093	      3.43796658	      0.84224492	      0.91268733	      0.54347137	     12.07900462	      5.21134794	    -13.16184289	     30.70000634	     30.70000634	     19.45911699	    -12.25786378	     -0.53828723	     27.31482458	    -16.77271768	     -1.94845986	     51.52142231	     51.52142231	     18.00920986	    -19.58298259	     23.12082331	    -11.64582187	      6.65213873	      2.38731082	     26.98362329	    -14.10602838	     -4.78365406	     54.10435365	     44.33937935	      0.00000000	      0.00000000	     -0.26043761	     -8.49451752	    -12.44344257	     47.20113959	     44.63668222	      0.00000000	      0.00000000
     18.52142857	      0.36264174	     -4.25108504	      4.03291486	      0.84075236	      0.91177552	      0.54307764	     11.94742239	      5.10231601	    -13.27163364	     31.07950127	     31.07950127	     20.08375399	    -12.77175576	      0.30364423	     27.86359290	    -16.25987345	     -1.57268323	     49.81725391	     49.81725391	     17.52451644	    -19.54689357	     22.45916708	    -11.63106364	      6.52550053	      3.19515626	     28.08488337	    -14.32627820	     -4.14032366	     56.03618170	     44.37832932	      0.00000000	      0.00000000	      0.22559897	     -7.27239113	    -11.47917992	     40.90742056	     44.74632494	      0.00000000	      0.00000000
